<svg width="24" height="25" viewBox="0 0 24 25" fill="none" xmlns="http://www.w3.org/2000/svg">
<path d="M18 8.30957C18 6.71827 17.3679 5.19215 16.2426 4.06693C15.1174 2.94171 13.5913 2.30957 12 2.30957C10.4087 2.30957 8.88258 2.94171 7.75736 4.06693C6.63214 5.19215 6 6.71827 6 8.30957C6 15.3096 3 17.3096 3 17.3096H21C21 17.3096 18 15.3096 18 8.30957Z" stroke="#6B7280" stroke-width="1.5" stroke-linecap="round" stroke-linejoin="round"/>
<path d="M13.73 21.3096C13.5542 21.6126 13.3019 21.8642 12.9982 22.0391C12.6946 22.214 12.3504 22.306 12 22.306C11.6496 22.306 11.3054 22.214 11.0018 22.0391C10.6982 21.8642 10.4458 21.6126 10.27 21.3096" stroke="#6B7280" stroke-width="1.5" stroke-linecap="round" stroke-linejoin="round"/>
</svg>
