<svg width="22" height="18" viewBox="0 0 22 18" fill="none" xmlns="http://www.w3.org/2000/svg">
<g clip-path="url(#clip0_6440_6694)">
<path d="M16.4475 0.200195H5.55231C5.15611 0.200195 4.80945 0.547238 4.80945 0.943857C4.80945 1.34048 5.15611 1.68752 5.55231 1.68752H5.79992V17.5523C5.79992 17.701 5.89897 17.8002 6.04754 17.8002H15.9523C16.1009 17.8002 16.1999 17.701 16.1999 17.5523V1.68752H16.4475C16.8437 1.68752 17.1904 1.34048 17.1904 0.943857C17.1904 0.547238 16.8437 0.200195 16.4475 0.200195ZM10.2571 15.5692C10.2571 15.7179 10.158 15.8171 10.0094 15.8171H7.53326C7.38469 15.8171 7.28564 15.7179 7.28564 15.5692V14.0819C7.28564 13.9332 7.38469 13.834 7.53326 13.834H10.0094C10.158 13.834 10.2571 13.9332 10.2571 14.0819V15.5692ZM10.2571 11.603C10.2571 11.7517 10.158 11.8509 10.0094 11.8509H7.53326C7.38469 11.8509 7.28564 11.7517 7.28564 11.603V10.1157C7.28564 9.96696 7.38469 9.8678 7.53326 9.8678H10.0094C10.158 9.8678 10.2571 9.96696 10.2571 10.1157V11.603ZM8.0285 4.91005C8.0285 3.274 9.36564 1.93541 10.9999 1.93541C12.6342 1.93541 13.9714 3.274 13.9714 4.91005C13.9714 6.54611 12.6342 7.8847 10.9999 7.8847C9.36564 7.8847 8.0285 6.54611 8.0285 4.91005ZM14.7142 15.5692C14.7142 15.7179 14.6152 15.8171 14.4666 15.8171H11.9904C11.8418 15.8171 11.7428 15.7179 11.7428 15.5692V14.0819C11.7428 13.9332 11.8418 13.834 11.9904 13.834H14.4666C14.6152 13.834 14.7142 13.9332 14.7142 14.0819V15.5692ZM14.7142 11.603C14.7142 11.7517 14.6152 11.8509 14.4666 11.8509H11.9904C11.8418 11.8509 11.7428 11.7517 11.7428 11.603V10.1157C11.7428 9.96696 11.8418 9.8678 11.9904 9.8678H14.4666C14.6152 9.8678 14.7142 9.96696 14.7142 10.1157V11.603Z" fill="white"/>
<path d="M0.599976 3.91847C0.599976 4.31509 0.946642 4.66213 1.34283 4.66213H4.56188V3.1748H1.34283C0.946642 3.1748 0.599976 3.52185 0.599976 3.91847ZM12.5847 4.26551H11.6438V3.32354C11.6438 3.27396 11.5943 3.1748 11.4952 3.1748H10.4057C10.3562 3.1748 10.2571 3.22438 10.2571 3.32354V4.26551H9.31617C9.26664 4.26551 9.16759 4.31509 9.16759 4.41424V5.50495C9.16759 5.55452 9.21712 5.65368 9.31617 5.65368H10.2571V6.59565C10.2571 6.64523 10.3066 6.74438 10.4057 6.74438H11.4952C11.5447 6.74438 11.6438 6.6948 11.6438 6.59565V5.65368H12.5847C12.6343 5.65368 12.7333 5.6041 12.7333 5.50495V4.36466C12.7333 4.31509 12.6838 4.26551 12.5847 4.26551ZM4.31426 5.90157H1.34283C1.19426 5.90157 1.09521 6.00072 1.09521 6.14945V17.5523C1.09521 17.701 1.19426 17.8002 1.34283 17.8002H4.31426C4.46283 17.8002 4.56188 17.701 4.56188 17.5523V13.834H2.58093C2.43236 13.834 2.33331 13.7348 2.33331 13.5861V12.0987C2.33331 11.95 2.43236 11.8509 2.58093 11.8509H4.56188V9.86776H2.58093C2.43236 9.86776 2.33331 9.76861 2.33331 9.61987V8.13255C2.33331 7.98382 2.43236 7.88466 2.58093 7.88466H4.56188V6.14945C4.56188 6.00072 4.46283 5.90157 4.31426 5.90157ZM20.6571 3.1748H17.4381V4.66213H20.6571C21.0533 4.66213 21.4 4.31509 21.4 3.91847C21.4 3.52185 21.0533 3.1748 20.6571 3.1748ZM20.6571 5.90157H17.6857C17.5371 5.90157 17.4381 6.00072 17.4381 6.14945V7.88466H19.419C19.5676 7.88466 19.6666 7.98382 19.6666 8.13255V9.61987C19.6666 9.76861 19.5676 9.86776 19.419 9.86776H17.4381V11.8509H19.419C19.5676 11.8509 19.6666 11.95 19.6666 12.0987V13.5861C19.6666 13.7348 19.5676 13.834 19.419 13.834H17.4381V17.5523C17.4381 17.701 17.5371 17.8002 17.6857 17.8002H20.6571C20.8057 17.8002 20.9047 17.701 20.9047 17.5523V6.14945C20.9047 6.00072 20.8057 5.90157 20.6571 5.90157Z" fill="white"/>
</g>
<defs>
<clipPath id="clip0_6440_6694">
<rect width="20.8" height="17.6" fill="white" transform="translate(0.599976 0.200195)"/>
</clipPath>
</defs>
</svg>
